<mxfile host="app.diagrams.net" modified="2024-05-10T15:18:28.285Z" agent="Mozilla/5.0 (Windows NT 10.0; Win64; x64) AppleWebKit/537.36 (KHTML, like Gecko) Chrome/124.0.0.0 Safari/537.36" version="24.3.0" etag="7xVhiqV4blQqvRKN-M8Y" type="github">
  <diagram name="Halaman-1" id="XsEVRsWwXdoxfbBrG8u4">
    <mxGraphModel>
      <root>
        <mxCell id="0" />
        <mxCell id="1" parent="0" />
      </root>
    </mxGraphModel>
  </diagram>
</mxfile>
